<svg width="32" height="32" viewBox="0 0 32 32" fill="none" xmlns="http://www.w3.org/2000/svg">
<path fill-rule="evenodd" clip-rule="evenodd" d="M10.1752 6.16887C10.8271 6.43698 11.5083 6.79985 12.0721 7.25749C13.5085 6.70727 15.1105 6.4 16.8 6.4C22.9856 6.4 28 10.519 28 15.6C28 17.8652 27.0034 19.9391 25.3507 21.5422C24.9393 21.9412 24.4873 22.3111 23.9999 22.6475L25.2886 24.2226C25.72 24.7499 25.6817 25.5182 25.2 25.9999C24.7183 26.4816 23.95 26.5199 23.4227 26.0886L21.0216 24.124C19.7188 24.5599 18.2935 24.8 16.8 24.8C15.3065 24.8 13.8813 24.5599 12.5784 24.1241L10.1773 26.0886C9.65011 26.5199 8.88177 26.4816 8.40007 25.9999C7.91837 25.5182 7.88005 24.7499 8.31143 24.2226L9.60019 22.6475C9.11271 22.3111 8.66064 21.9412 8.24923 21.5422C7.3089 20.63 6.58097 19.5655 6.12816 18.4H4V12.8H6.12816C6.66477 11.4188 7.58777 10.1794 8.79276 9.16741L8 5.6C8.38949 5.6 9.25303 5.78962 10.1752 6.16887ZM6.59267 8.48658L5.50677 3.6H8C8.67666 3.6 9.61145 3.82885 10.4544 4.13333C11.0501 4.34851 11.7261 4.64653 12.3807 5.04071C13.7674 4.62444 15.256 4.4 16.8 4.4C23.7042 4.4 30 9.06444 30 15.6C30 18.4585 28.7534 20.9976 26.8044 22.9169L26.8366 22.9562C27.9186 24.2786 27.8225 26.2059 26.6142 27.4141C25.406 28.6224 23.4787 28.7185 22.1562 27.6365L20.5696 26.3383C19.3715 26.6395 18.1057 26.8 16.8 26.8C15.4944 26.8 14.2285 26.6395 13.0304 26.3383L11.4438 27.6365C10.1213 28.7185 8.19411 28.6224 6.98586 27.4141C5.7776 26.2059 5.68148 24.2786 6.76351 22.9562L6.79517 22.9175C6.03338 22.1679 5.37936 21.3236 4.86454 20.4H2V10.8H4.8646C5.33338 9.95908 5.91749 9.18395 6.59267 8.48658Z" fill="#240639"/>
<path d="M20.1733 15.3133C20.5667 14.8533 20.8 14.2667 20.8 13.6C20.8 12.36 19.9533 11.3133 18.8 11.02V9.6H17.4667V10.9333H16.1333V9.6H14.8V10.9333H12.8V12.2667H14.1333V18.9333H12.8V20.2667H14.8V21.6H16.1333V20.2667H17.4667V21.6H18.8V20.2667C20.2733 20.2667 21.4667 19.0733 21.4667 17.6C21.4667 16.6333 20.9467 15.78 20.1733 15.3133ZM15.4667 12.2667H18.1333C18.8667 12.2667 19.4667 12.8667 19.4667 13.6C19.4667 14.3333 18.8667 14.9333 18.1333 14.9333H15.4667V12.2667ZM18.8 18.9333H15.4667V16.2667H18.8C19.5333 16.2667 20.1333 16.8667 20.1333 17.6C20.1333 18.3333 19.5333 18.9333 18.8 18.9333Z" fill="#240639"/>
</svg>
