<svg width="32" height="32" viewBox="0 0 32 32" fill="none" xmlns="http://www.w3.org/2000/svg">
<path d="M13.1202 24.7998L15.0402 19.6798L11.2002 19.6798L18.8802 11.9998L16.9602 17.1198L20.8002 17.1198L13.1202 24.7998Z" fill="#240639"/>
<path fill-rule="evenodd" clip-rule="evenodd" d="M22.0001 7.19998C22.0001 7.62074 21.9279 8.02464 21.7953 8.39998H25.6427H27.0001C27.5524 8.39998 28.0001 8.84769 28.0001 9.39998C28.0001 9.95226 27.5524 10.4 27.0001 10.4H26.0413C26.3901 12.0665 26.7041 12.9532 27.0351 13.6596C27.2215 14.0572 27.4272 14.4276 27.6943 14.8958C27.8943 15.2759 29.0447 17.3672 29.2603 17.7853C31.6083 22.3383 28.1738 28.4037 22.2816 28.4037H9.71894C3.82681 28.4037 0.392267 22.3383 2.74028 17.7853C2.95577 17.3674 3.16559 16.9687 3.36548 16.5888L3.3671 16.5858C3.67998 15.9912 4.72413 14.0815 4.96544 13.6596C5.29649 12.9532 5.61046 12.0665 5.95927 10.4H5.0001C4.44781 10.4 4.0001 9.95226 4.0001 9.39998C4.0001 8.84769 4.44781 8.39998 5.0001 8.39998H6.3579H10.2049C10.0723 8.02464 10.0001 7.62074 10.0001 7.19998C10.0001 5.21175 11.6119 3.59998 13.6001 3.59998C14.5221 3.59998 15.3632 3.9466 16.0001 4.51665C16.637 3.9466 17.4781 3.59998 18.4001 3.59998C20.3883 3.59998 22.0001 5.21175 22.0001 7.19998ZM11.9492 10.4H8.00028C7.3736 13.5607 6.80496 14.5552 5.93864 16.0704C5.69713 16.4928 5.43249 16.9556 5.137 17.5171C4.93607 17.899 4.72961 18.2913 4.51783 18.702C2.87748 21.8828 5.27799 26.4037 9.71894 26.4037H22.2816C26.7226 26.4037 29.1231 21.8828 27.4827 18.702C27.271 18.2913 27.0645 17.899 26.8636 17.5171C26.5682 16.9558 26.3036 16.4931 26.0622 16.0708C25.1958 14.5556 24.627 13.5607 24.0003 10.4H20.051H16.7492H15.251H11.9492ZM19.4584 8.39998C19.7906 8.1068 20.0001 7.67785 20.0001 7.19998C20.0001 6.31632 19.2838 5.59998 18.4001 5.59998C17.8546 5.59998 17.3729 5.87296 17.084 6.28978C17.1598 6.5805 17.2001 6.88553 17.2001 7.19998C17.2001 7.51442 17.1598 7.81945 17.084 8.11017C17.158 8.21693 17.2446 8.31426 17.3418 8.39998C17.6238 8.64892 17.9943 8.79998 18.4001 8.79998C18.8059 8.79998 19.1764 8.64892 19.4584 8.39998ZM12.5418 8.39998C12.2096 8.1068 12.0001 7.67785 12.0001 7.19998C12.0001 6.31632 12.7164 5.59998 13.6001 5.59998C14.4838 5.59998 15.2001 6.31632 15.2001 7.19998C15.2001 7.67785 14.9906 8.1068 14.6584 8.39998C14.3764 8.64892 14.0059 8.79998 13.6001 8.79998C13.1943 8.79998 12.8238 8.64892 12.5418 8.39998Z" fill="#240639"/>
</svg>
